<mxfile host="65bd71144e">
    <diagram id="2qQow2EDD-zB0ehWD6a5" name="第 1 页">
        <mxGraphModel dx="472" dy="599" grid="0" gridSize="10" guides="1" tooltips="1" connect="1" arrows="1" fold="1" page="1" pageScale="1" pageWidth="827" pageHeight="1169" background="none" math="0" shadow="0">
            <root>
                <mxCell id="0"/>
                <mxCell id="1" parent="0"/>
                <mxCell id="3" value="" style="rounded=0;whiteSpace=wrap;html=1;" parent="1" vertex="1">
                    <mxGeometry x="140" y="70" width="530" height="60" as="geometry"/>
                </mxCell>
                <mxCell id="5" value="前端领域分层图" style="text;html=1;align=center;verticalAlign=middle;resizable=0;points=[];autosize=1;strokeColor=none;fillColor=none;fontSize=16;" parent="1" vertex="1">
                    <mxGeometry x="349" y="30" width="130" height="20" as="geometry"/>
                </mxCell>
                <mxCell id="6" value="&lt;font style=&quot;font-size: 16px&quot;&gt;Web体系（跨端）&lt;/font&gt;" style="text;html=1;strokeColor=none;fillColor=none;align=center;verticalAlign=middle;whiteSpace=wrap;rounded=0;fontSize=16;" parent="1" vertex="1">
                    <mxGeometry x="150" y="85" width="70" height="35" as="geometry"/>
                </mxCell>
                <mxCell id="7" value="" style="rounded=0;whiteSpace=wrap;html=1;fillColor=#f0a30a;fontColor=#000000;strokeColor=#BD7000;" parent="1" vertex="1">
                    <mxGeometry x="140" y="130" width="530" height="60" as="geometry"/>
                </mxCell>
                <mxCell id="8" value="" style="rounded=0;whiteSpace=wrap;html=1;" parent="1" vertex="1">
                    <mxGeometry x="140" y="190" width="530" height="60" as="geometry"/>
                </mxCell>
                <mxCell id="9" value="" style="rounded=0;whiteSpace=wrap;html=1;" parent="1" vertex="1">
                    <mxGeometry x="140" y="250" width="530" height="60" as="geometry"/>
                </mxCell>
                <mxCell id="10" value="" style="rounded=0;whiteSpace=wrap;html=1;" parent="1" vertex="1">
                    <mxGeometry x="140" y="310" width="530" height="60" as="geometry"/>
                </mxCell>
                <mxCell id="11" value="" style="rounded=0;whiteSpace=wrap;html=1;" parent="1" vertex="1">
                    <mxGeometry x="140" y="370" width="530" height="60" as="geometry"/>
                </mxCell>
                <mxCell id="12" value="中后台" style="text;html=1;strokeColor=none;fillColor=none;align=center;verticalAlign=middle;whiteSpace=wrap;rounded=0;fontSize=16;" parent="1" vertex="1">
                    <mxGeometry x="150" y="145" width="60" height="30" as="geometry"/>
                </mxCell>
                <mxCell id="13" value="Serverless" style="text;html=1;strokeColor=none;fillColor=none;align=center;verticalAlign=middle;whiteSpace=wrap;rounded=0;fontSize=16;" parent="1" vertex="1">
                    <mxGeometry x="160" y="205" width="60" height="30" as="geometry"/>
                </mxCell>
                <mxCell id="14" value="体验体系" style="text;html=1;strokeColor=none;fillColor=none;align=center;verticalAlign=middle;whiteSpace=wrap;rounded=0;fontSize=16;" parent="1" vertex="1">
                    <mxGeometry x="150" y="265" width="70" height="30" as="geometry"/>
                </mxCell>
                <mxCell id="15" value="智能化" style="text;html=1;strokeColor=none;fillColor=none;align=center;verticalAlign=middle;whiteSpace=wrap;rounded=0;fontSize=16;" parent="1" vertex="1">
                    <mxGeometry x="145" y="325" width="70" height="30" as="geometry"/>
                </mxCell>
                <mxCell id="16" value="多媒体技术" style="text;html=1;strokeColor=none;fillColor=none;align=center;verticalAlign=middle;whiteSpace=wrap;rounded=0;fontSize=16;" parent="1" vertex="1">
                    <mxGeometry x="145" y="385" width="95" height="25" as="geometry"/>
                </mxCell>
                <mxCell id="17" value="" style="rounded=0;whiteSpace=wrap;html=1;" parent="1" vertex="1">
                    <mxGeometry x="140" y="430" width="530" height="60" as="geometry"/>
                </mxCell>
                <mxCell id="18" value="图形&amp;amp;互动技术" style="text;html=1;strokeColor=none;fillColor=none;align=center;verticalAlign=middle;whiteSpace=wrap;rounded=0;fontSize=16;" parent="1" vertex="1">
                    <mxGeometry x="147.5" y="445" width="85" height="30" as="geometry"/>
                </mxCell>
                <mxCell id="19" value="" style="rounded=0;whiteSpace=wrap;html=1;" parent="1" vertex="1">
                    <mxGeometry x="140" y="490" width="530" height="60" as="geometry"/>
                </mxCell>
                <mxCell id="20" value="数据可视化" style="text;html=1;strokeColor=none;fillColor=none;align=center;verticalAlign=middle;whiteSpace=wrap;rounded=0;fontSize=16;" parent="1" vertex="1">
                    <mxGeometry x="150" y="505" width="85" height="30" as="geometry"/>
                </mxCell>
                <mxCell id="21" value="低码" style="rounded=0;whiteSpace=wrap;html=1;fontSize=16;" parent="1" vertex="1">
                    <mxGeometry x="265" y="142.5" width="85" height="37.5" as="geometry"/>
                </mxCell>
                <mxCell id="23" value="小程序" style="rounded=0;whiteSpace=wrap;html=1;fontSize=16;" parent="1" vertex="1">
                    <mxGeometry x="265" y="85" width="85" height="35" as="geometry"/>
                </mxCell>
                <mxCell id="24" value="端内/外" style="rounded=0;whiteSpace=wrap;html=1;fontSize=16;" parent="1" vertex="1">
                    <mxGeometry x="365" y="85" width="80" height="35" as="geometry"/>
                </mxCell>
                <mxCell id="25" value="云原生" style="rounded=0;whiteSpace=wrap;html=1;fontSize=16;" parent="1" vertex="1">
                    <mxGeometry x="265" y="200" width="85" height="40" as="geometry"/>
                </mxCell>
                <mxCell id="27" value="运维/研发" style="rounded=0;whiteSpace=wrap;html=1;fontSize=16;" parent="1" vertex="1">
                    <mxGeometry x="365" y="200" width="90" height="40" as="geometry"/>
                </mxCell>
                <mxCell id="28" value="全链路体验" style="rounded=0;whiteSpace=wrap;html=1;fontSize=16;" parent="1" vertex="1">
                    <mxGeometry x="460" y="83.75" width="85" height="37.5" as="geometry"/>
                </mxCell>
                <mxCell id="30" value="UX&lt;br&gt;体验度量/分析能力" style="rounded=0;whiteSpace=wrap;html=1;fontSize=16;" parent="1" vertex="1">
                    <mxGeometry x="265" y="260" width="135" height="40" as="geometry"/>
                </mxCell>
                <mxCell id="31" value="DX研发体验" style="rounded=0;whiteSpace=wrap;html=1;fontSize=16;" parent="1" vertex="1">
                    <mxGeometry x="414" y="260" width="116" height="45" as="geometry"/>
                </mxCell>
                <mxCell id="32" value="人机交互" style="rounded=0;whiteSpace=wrap;html=1;fontSize=16;" parent="1" vertex="1">
                    <mxGeometry x="265" y="320" width="85" height="40" as="geometry"/>
                </mxCell>
                <mxCell id="33" value="音视频" style="rounded=0;whiteSpace=wrap;html=1;fontSize=16;" parent="1" vertex="1">
                    <mxGeometry x="265" y="380" width="85" height="40" as="geometry"/>
                </mxCell>
                <mxCell id="34" value="引擎" style="rounded=0;whiteSpace=wrap;html=1;fontSize=16;" parent="1" vertex="1">
                    <mxGeometry x="265" y="440" width="85" height="40" as="geometry"/>
                </mxCell>
                <mxCell id="35" value="编辑器" style="rounded=0;whiteSpace=wrap;html=1;fontSize=16;" parent="1" vertex="1">
                    <mxGeometry x="360" y="440" width="85" height="40" as="geometry"/>
                </mxCell>
                <mxCell id="36" value="VR/AR" style="rounded=0;whiteSpace=wrap;html=1;fontSize=16;" parent="1" vertex="1">
                    <mxGeometry x="460" y="440" width="85" height="40" as="geometry"/>
                </mxCell>
                <mxCell id="37" value="图分析" style="rounded=0;whiteSpace=wrap;html=1;fontSize=16;" parent="1" vertex="1">
                    <mxGeometry x="265" y="500" width="85" height="40" as="geometry"/>
                </mxCell>
                <mxCell id="42" value="" style="rounded=0;whiteSpace=wrap;html=1;" parent="1" vertex="1">
                    <mxGeometry x="140" y="550" width="530" height="60" as="geometry"/>
                </mxCell>
                <mxCell id="43" value="IOT" style="text;html=1;strokeColor=none;fillColor=none;align=center;verticalAlign=middle;whiteSpace=wrap;rounded=0;fontSize=16;" parent="1" vertex="1">
                    <mxGeometry x="135" y="565" width="85" height="30" as="geometry"/>
                </mxCell>
                <mxCell id="44" value="" style="rounded=0;whiteSpace=wrap;html=1;" parent="1" vertex="1">
                    <mxGeometry x="140" y="610" width="530" height="180" as="geometry"/>
                </mxCell>
                <mxCell id="45" value="Node&lt;br&gt;工程体系" style="text;html=1;strokeColor=none;fillColor=none;align=center;verticalAlign=middle;whiteSpace=wrap;rounded=0;fontSize=16;" parent="1" vertex="1">
                    <mxGeometry x="140" y="625" width="85" height="30" as="geometry"/>
                </mxCell>
                <mxCell id="47" value="构建器&lt;br&gt;Builder" style="rounded=0;whiteSpace=wrap;html=1;fontSize=16;" parent="1" vertex="1">
                    <mxGeometry x="265" y="670" width="85" height="40" as="geometry"/>
                </mxCell>
                <mxCell id="49" value="Flow&lt;br&gt;CI/CD" style="rounded=0;whiteSpace=wrap;html=1;fontSize=16;" parent="1" vertex="1">
                    <mxGeometry x="362.5" y="670" width="85" height="40" as="geometry"/>
                </mxCell>
                <mxCell id="50" value="规范Checker" style="rounded=0;whiteSpace=wrap;html=1;fontSize=16;" parent="1" vertex="1">
                    <mxGeometry x="560" y="670" width="85" height="40" as="geometry"/>
                </mxCell>
                <mxCell id="51" value="IDE" style="rounded=0;whiteSpace=wrap;html=1;fontSize=16;" parent="1" vertex="1">
                    <mxGeometry x="460" y="620" width="85" height="40" as="geometry"/>
                </mxCell>
                <mxCell id="52" value="开放平台" style="rounded=0;whiteSpace=wrap;html=1;fontSize=16;" parent="1" vertex="1">
                    <mxGeometry x="362.5" y="620" width="85" height="40" as="geometry"/>
                </mxCell>
                <mxCell id="54" value="研发平台&lt;br&gt;垂直平台" style="rounded=0;whiteSpace=wrap;html=1;fontSize=16;" parent="1" vertex="1">
                    <mxGeometry x="265" y="620" width="85" height="40" as="geometry"/>
                </mxCell>
                <mxCell id="55" value="脚手架&lt;br&gt;generator" style="rounded=0;whiteSpace=wrap;html=1;fontSize=16;" parent="1" vertex="1">
                    <mxGeometry x="460" y="670" width="85" height="40" as="geometry"/>
                </mxCell>
                <mxCell id="56" value="CR" style="rounded=0;whiteSpace=wrap;html=1;fontSize=16;" parent="1" vertex="1">
                    <mxGeometry x="560" y="620" width="85" height="40" as="geometry"/>
                </mxCell>
                <mxCell id="57" value="对象存储" style="rounded=0;whiteSpace=wrap;html=1;fontSize=16;" parent="1" vertex="1">
                    <mxGeometry x="265" y="720" width="85" height="40" as="geometry"/>
                </mxCell>
                <mxCell id="58" value="云服务器ECS" style="rounded=0;whiteSpace=wrap;html=1;fontSize=16;" parent="1" vertex="1">
                    <mxGeometry x="362.5" y="720" width="85" height="40" as="geometry"/>
                </mxCell>
                <mxCell id="59" value="Docker" style="rounded=0;whiteSpace=wrap;html=1;fontSize=16;" parent="1" vertex="1">
                    <mxGeometry x="460" y="720" width="85" height="40" as="geometry"/>
                </mxCell>
                <mxCell id="60" value="性能优化" style="rounded=0;whiteSpace=wrap;html=1;fontSize=16;" parent="1" vertex="1">
                    <mxGeometry x="362.5" y="142.5" width="80" height="37.5" as="geometry"/>
                </mxCell>
                <mxCell id="61" value="react" style="rounded=0;whiteSpace=wrap;html=1;fontSize=16;" parent="1" vertex="1">
                    <mxGeometry x="460" y="142.5" width="80" height="37.5" as="geometry"/>
                </mxCell>
            </root>
        </mxGraphModel>
    </diagram>
</mxfile>
